<?xml version="1.0" encoding="UTF-8" standalone="no"?>
<svg width="728px" height="91px" viewBox="0 0 728 91" version="1.1" xmlns="http://www.w3.org/2000/svg" xmlns:xlink="http://www.w3.org/1999/xlink" xmlns:sketch="http://www.bohemiancoding.com/sketch/ns">
    <!-- Generator: Sketch 3.1.1 (8761) - http://www.bohemiancoding.com/sketch -->
    <title>slice</title>
    <desc>Created with Sketch.</desc>
    <defs></defs>
    <g id="Page-1" stroke="none" stroke-width="1" fill="none" fill-rule="evenodd" sketch:type="MSPage">
        <rect id="line" fill="#EEEEEE" sketch:type="MSShapeGroup" x="0" y="90" width="728" height="1"></rect>
        <rect id="line" fill="#333333" sketch:type="MSShapeGroup" x="504" y="58" width="14" height="1"></rect>
        <rect id="line" fill="#333333" sketch:type="MSShapeGroup" x="423" y="58" width="54" height="1"></rect>
        <rect id="line" fill="#333333" sketch:type="MSShapeGroup" x="381" y="58" width="14" height="1"></rect>
        <rect id="line" fill="#333333" sketch:type="MSShapeGroup" x="300" y="58" width="54" height="1"></rect>
        <rect id="line" fill="#333333" sketch:type="MSShapeGroup" x="258" y="58" width="14" height="1"></rect>
        <rect id="line" fill="#333333" sketch:type="MSShapeGroup" x="177" y="58" width="54" height="1"></rect>
        <path d="M526.028279,37.0367849 L536.515584,47.8717458 L539.077595,38.2579763 L541.503865,47.6754568 L550.927693,38.9200857 L545.246052,54.2482107 L553.708455,57.5377615 L544.73531,60.2247732 L553.642537,77.4532888 L538.421834,63.6935232 L530.361287,77.1285818 L530.269002,65.7672537 L514.440388,69.2848318 L527.305623,60.8107107 L516.487752,59.9039724 L526.567341,56.7447927 L513.029744,48.6837576 L527.517537,51.1642263 L523.131795,45.3229177 L530.329548,48.7809255 L526.028279,37.0367849 Z" id="icon" stroke="#333333" fill="#FFFFFF" sketch:type="MSShapeGroup" transform="translate(533.369099, 57.245037) scale(-1, 1) rotate(3.000000) translate(-533.369099, -57.245037) "></path>
        <path d="M403.028279,37.0367849 L413.515584,47.8717458 L416.077595,38.2579763 L418.503865,47.6754568 L427.927693,38.9200857 L422.246052,54.2482107 L430.708455,57.5377615 L421.73531,60.2247732 L430.642537,77.4532888 L415.421834,63.6935232 L407.361287,77.1285818 L407.269002,65.7672537 L391.440388,69.2848318 L404.305623,60.8107107 L393.487752,59.9039724 L403.567341,56.7447927 L390.029744,48.6837576 L404.517537,51.1642263 L400.131795,45.3229177 L407.329548,48.7809255 L403.028279,37.0367849 Z" id="icon" stroke="#333333" fill="#FFFFFF" sketch:type="MSShapeGroup" transform="translate(410.369099, 57.245037) scale(-1, 1) rotate(3.000000) translate(-410.369099, -57.245037) "></path>
        <path d="M280.028279,37.0367849 L290.515584,47.8717458 L293.077595,38.2579763 L295.503865,47.6754568 L304.927693,38.9200857 L299.246052,54.2482107 L307.708455,57.5377615 L298.73531,60.2247732 L307.642537,77.4532888 L292.421834,63.6935232 L284.361287,77.1285818 L284.269002,65.7672537 L268.440388,69.2848318 L281.305623,60.8107107 L270.487752,59.9039724 L280.567341,56.7447927 L267.029744,48.6837576 L281.517537,51.1642263 L277.131795,45.3229177 L284.329548,48.7809255 L280.028279,37.0367849 Z" id="icon" stroke="#333333" fill="#FFFFFF" sketch:type="MSShapeGroup" transform="translate(287.369099, 57.245037) scale(-1, 1) rotate(3.000000) translate(-287.369099, -57.245037) "></path>
        <circle id="icon" stroke="#333333" fill="#FFFFFF" sketch:type="MSShapeGroup" cx="490.5" cy="58.5" r="13.5"></circle>
        <circle id="icon" stroke="#333333" fill="#FFFFFF" sketch:type="MSShapeGroup" cx="367.5" cy="58.5" r="13.5"></circle>
        <circle id="icon" stroke="#333333" fill="#FFFFFF" sketch:type="MSShapeGroup" cx="244.5" cy="58.5" r="13.5"></circle>
        <path d="M493.5,49.863961 L493.5,60.136039 L494.5,60.136039 L494.5,49.863961 L493.5,49.863961 Z" id="line" fill="#333333" sketch:type="MSShapeGroup" transform="translate(494.000000, 55.000000) rotate(45.000000) translate(-494.000000, -55.000000) "></path>
        <path d="M370.5,49.863961 L370.5,60.136039 L371.5,60.136039 L371.5,49.863961 L370.5,49.863961 Z" id="line" fill="#333333" sketch:type="MSShapeGroup" transform="translate(371.000000, 55.000000) rotate(45.000000) translate(-371.000000, -55.000000) "></path>
        <path d="M247.5,49.863961 L247.5,60.136039 L248.5,60.136039 L248.5,49.863961 L247.5,49.863961 Z" id="line" fill="#333333" sketch:type="MSShapeGroup" transform="translate(248.000000, 55.000000) rotate(45.000000) translate(-248.000000, -55.000000) "></path>
        <rect id="line" fill="#333333" sketch:type="MSShapeGroup" x="490" y="52" width="1" height="7"></rect>
        <rect id="line" fill="#333333" sketch:type="MSShapeGroup" x="367" y="52" width="1" height="7"></rect>
        <rect id="line" fill="#333333" sketch:type="MSShapeGroup" x="244" y="52" width="1" height="7"></rect>
        <path d="M16.7363281,63.0371094 C16.501952,61.9706978 15.8867237,61.0830114 14.890625,60.3740234 C13.8945263,59.6650355 12.3535261,58.9970734 10.2675781,58.3701172 C8.1816302,57.7431609 6.64062998,57.1103548 5.64453125,56.4716797 C4.64843252,55.8330046 3.94824421,55.0800825 3.54394531,54.2128906 C3.13964642,53.3456988 3.03124906,52.3789116 3.21875,51.3125 C3.41796975,50.0585875 3.95116754,48.9599657 4.81835938,48.0166016 C5.68555121,47.0732375 6.79589167,46.3437526 8.14941406,45.828125 C9.50293646,45.3124974 10.9413986,45.0546875 12.4648437,45.0546875 C13.9765701,45.0546875 15.3154239,45.3828092 16.4814453,46.0390625 C17.6474668,46.6953158 18.4970676,47.5976505 19.0302734,48.7460938 C19.5634792,49.894537 19.7363291,51.1835866 19.5488281,52.6132812 L18.5996094,52.6132812 C18.8925796,50.7031154 18.4589902,49.1240297 17.2988281,47.8759766 C16.1386661,46.6279234 14.5332134,46.0039062 12.4824219,46.0039062 C10.5722561,46.0039062 8.84375773,46.434566 7.296875,47.2958984 C5.74999227,48.1572309 4.75976779,49.3027272 4.32617188,50.7324219 C4.06835809,51.5878949 4.02148355,52.3554654 4.18554688,53.0351562 C4.41992305,54.0781302 5.06151819,54.9423794 6.11035156,55.6279297 C7.15918493,56.31348 8.60936574,56.9199192 10.4609375,57.4472656 C13.3203268,58.2558634 15.3124944,59.2578065 16.4375,60.453125 C17.5625056,61.6484435 17.9785171,63.1074133 17.6855469,64.8300781 C17.4863271,66.1308659 16.9443404,67.2705029 16.0595703,68.2490234 C15.1748003,69.227544 14.0351632,69.9892551 12.640625,70.5341797 C11.2460868,71.0791043 9.76953904,71.3515625 8.2109375,71.3515625 C5.53904914,71.3515625 3.46485113,70.6601632 1.98828125,69.2773438 C0.511711367,67.8945243 -0.068360957,66.0605583 0.248046875,63.7753906 L1.19726562,63.7753906 C0.90429541,65.7910257 1.4023373,67.3994081 2.69140625,68.6005859 C3.9804752,69.8017638 5.81444123,70.4023438 8.19335938,70.4023438 C10.1035252,70.4023438 11.8320235,69.9775433 13.3789062,69.1279297 C14.925789,68.2783161 15.9570287,67.1445383 16.4726562,65.7265625 C16.8242205,64.7539014 16.9121103,63.857426 16.7363281,63.0371094 L16.7363281,63.0371094 Z M37.0214844,58.3085938 L24.5585938,58.3085938 L22.5195312,70.0507812 L36.6875,70.0507812 L36.546875,71 L21.3945312,71 L25.8417969,45.40625 L40.9589844,45.40625 L40.8183594,46.3554688 L26.6328125,46.3554688 L24.7167969,57.359375 L37.1445312,57.359375 L37.0214844,58.3085938 Z M53.9316406,70.4375 L57.6933594,75.0429688 L56.9726562,75.6230469 L52.9648438,70.8417969 C51.8749946,71.1816423 50.7968803,71.3515625 49.7304688,71.3515625 C48.2070236,71.3515625 46.8681698,71.0058628 45.7138672,70.3144531 C44.5595645,69.6230434 43.6660188,68.615241 43.0332031,67.2910156 C42.4003875,65.9667903 42.0605471,64.4785239 42.0136719,62.8261719 C41.9902343,61.9238236 42.0546867,61.0214889 42.2070312,60.1191406 L42.8046875,56.6035156 C43.1914082,54.3183479 43.9326117,52.2851652 45.0283203,50.5039062 C46.1240289,48.7226473 47.4540937,47.3691453 49.0185547,46.4433594 C50.5830156,45.5175735 52.2734284,45.0546875 54.0898438,45.0546875 C55.6250077,45.0546875 56.9697208,45.4033168 58.1240234,46.1005859 C59.2783261,46.797855 60.1718718,47.8115168 60.8046875,49.1416016 C61.4375032,50.4716863 61.7714842,51.9453044 61.8066406,53.5625 C61.8183594,54.5468799 61.7480476,55.4902299 61.5957031,56.3925781 L61.015625,59.8027344 C60.5820291,62.3574346 59.7558655,64.5458893 58.5371094,66.3681641 C57.3183533,68.1904388 55.7832124,69.5468705 53.9316406,70.4375 L53.9316406,70.4375 Z M60.8925781,53.7910156 C60.8574217,51.3652222 60.2421935,49.4609444 59.046875,48.078125 C57.8515565,46.6953056 56.1992293,46.0039062 54.0898438,46.0039062 C51.4999871,46.0039062 49.2705172,46.9824121 47.4013672,48.9394531 C45.5322172,50.8964942 44.3222684,53.4628747 43.7714844,56.6386719 L43.15625,60.2246094 C43.0273431,61.0097696 42.9687499,61.7949179 42.9804688,62.5800781 C42.9804688,64.9824339 43.578119,66.8867117 44.7734375,68.2929688 C45.968756,69.6992258 47.6210832,70.4023438 49.7304688,70.4023438 C51.3359455,70.4023438 52.8388602,70.0039102 54.2392578,69.2070312 C55.6396554,68.4101523 56.8466746,67.220711 57.8603516,65.6386719 C58.8740285,64.0566327 59.5800761,62.2461039 59.9785156,60.2070312 L60.6640625,56.3574219 C60.816407,55.5019488 60.8925781,54.6464887 60.8925781,53.7910156 L60.8925781,53.7910156 Z M86.1523438,45.40625 L83.1816406,62.6503906 C82.7246071,65.2871226 81.5996183,67.3964765 79.8066406,68.9785156 C78.0136629,70.5605548 75.8339972,71.3515625 73.2675781,71.3515625 C71.6386637,71.3515625 70.2382871,70.9941442 69.0664062,70.2792969 C67.8945254,69.5644496 67.0507838,68.5449285 66.5351562,67.2207031 C66.0195287,65.8964778 65.896483,64.4082114 66.1660156,62.7558594 L69.171875,45.40625 L70.1035156,45.40625 L67.1152344,62.7558594 C66.7519513,65.0058706 67.1445255,66.8427663 68.2929688,68.2666016 C69.441412,69.6904368 71.0995985,70.4023438 73.2675781,70.4023438 C75.541027,70.4023438 77.5068276,69.6757885 79.1650391,68.2226562 C80.8232505,66.769524 81.8574198,64.8476682 82.2675781,62.4570312 L85.203125,45.40625 L86.1523438,45.40625 Z M103.958984,58.3085938 L91.4960938,58.3085938 L89.4570312,70.0507812 L103.625,70.0507812 L103.484375,71 L88.3320312,71 L92.7792969,45.40625 L107.896484,45.40625 L107.755859,46.3554688 L93.5703125,46.3554688 L91.6542969,57.359375 L104.082031,57.359375 L103.958984,58.3085938 Z M126.335937,71 L125.421875,71 L113.539062,46.9882812 L109.373047,71 L108.40625,71 L112.800781,45.40625 L113.732422,45.40625 L125.632812,69.3652344 L129.78125,45.40625 L130.730469,45.40625 L126.335937,71 Z M132.980469,70.0507812 L149.328125,70.0507812 L149.1875,71 L131.503906,71 L131.626953,70.2265625 L151.542969,46.3378906 L136.460938,46.3378906 L136.583984,45.40625 L153.037109,45.4238281 L152.949219,46.0742188 L132.980469,70.0507812 Z M168.998047,63.3535156 L156.869141,63.3535156 L152.773438,71 L151.71875,71 L165.394531,45.4238281 L166.537109,45.40625 L171.458984,71 L170.457031,71 L168.998047,63.3535156 Z M157.361328,62.4042969 L168.804688,62.4042969 L165.851562,46.6015625 L157.361328,62.4042969 Z" id="title" fill="#333333" sketch:type="MSShapeGroup"></path>
    </g>
</svg>